<svg width="30" height="45" viewBox="0 0 19 31" fill="none" xmlns="http://www.w3.org/2000/svg">
<path d="M18.7011 10.5217C18.7011 16.234 9.48375 30.6908 9.48375 30.6908C9.48375 30.6908 0.266357 16.234 0.266357 10.5217C0.266357 4.80929 3.8275 0.695648 9.48375 0.695648C15.14 0.695648 18.7011 4.80929 18.7011 10.5217Z" fill="#111111"/>
<g clip-path="url(#clip0_7806_447)">
<path d="M17.1515 10.3163C17.0731 7.4925 15.4287 4.85232 12.9263 3.58275C11.8612 3.04246 10.6751 2.76428 9.48377 2.76428C8.40304 2.76428 7.32531 2.99255 6.33903 3.43984C5.33184 3.89659 4.42894 4.57702 3.70157 5.41534C2.95779 6.27265 2.4043 7.29196 2.09555 8.38872C1.35147 11.0319 2.1065 13.9922 4.00507 15.9571C5.43721 17.4392 7.43518 18.279 9.48377 18.279C12.2221 18.279 14.836 16.733 16.1815 14.3254C16.871 13.0916 17.1899 11.698 17.1515 10.3163ZM2.36823 9.44681C2.40937 9.16882 2.46646 8.89322 2.53917 8.62192C2.68385 8.08212 2.89055 7.55943 3.15378 7.06742C3.4138 6.58143 3.72921 6.12605 4.09115 5.71206C4.25218 5.52791 4.42237 5.35191 4.60105 5.1851C4.6084 5.17822 4.61566 5.17128 4.62301 5.16443C6.04927 6.48516 6.88736 8.32572 6.95241 10.2762C6.95241 10.2762 2.29337 10.2762 2.29331 10.2762C2.27972 10.2762 2.35806 9.5156 2.36823 9.44681ZM2.98293 13.6356C2.77038 13.183 2.60443 12.7082 2.48849 12.2212C2.46019 12.1024 2.24557 10.7671 2.29331 10.7671C2.29493 10.7671 6.95241 10.7671 6.95241 10.7671C6.89156 12.5917 6.08993 14.7171 4.62379 15.8706C3.90245 15.3447 3.35844 14.435 2.98293 13.6356ZM9.24074 17.7836C7.67822 17.7315 6.20215 17.1784 4.99393 16.2002C6.49442 14.7895 7.37424 12.8358 7.4389 10.7671H9.24074V17.7836ZM9.24074 10.2762H7.4389C7.37424 8.20745 6.49442 6.25377 4.99393 4.84308C6.20215 3.86489 7.67822 3.31178 9.24074 3.25975V10.2762ZM14.3446 5.16446C15.7592 6.47504 16.6096 8.33814 16.6743 10.2762H12.0151C12.0802 8.32575 12.9183 6.48519 14.3446 5.16446ZM9.72684 3.25975C11.2894 3.31178 12.7655 3.86489 13.9736 4.84308C12.4732 6.25377 11.5933 8.20745 11.5287 10.2762H9.72684V3.25975ZM9.72684 17.7836V10.7671H11.5287C11.5933 12.8359 12.4732 14.7896 13.9736 16.2002C12.7655 17.1784 11.2894 17.7315 9.72684 17.7836ZM16.5036 12.1147C16.4029 12.5675 16.2592 13.0104 16.0749 13.4356C15.7834 14.1082 15.366 14.7642 14.8746 15.3304C14.7122 15.5176 14.5416 15.695 14.3648 15.8599C14.358 15.8662 14.3513 15.8726 14.3446 15.8788C12.9183 14.5581 12.0802 12.7175 12.0151 10.7671C12.0151 10.7671 16.6741 10.7671 16.6742 10.7671C16.7147 10.7671 16.5281 12.0042 16.5036 12.1147Z" fill="#F5F5F5"/>
</g>
<defs>
<clipPath id="clip0_7806_447">
<rect width="15.3623" height="15.5148" fill="white" transform="translate(1.80261 2.76428)"/>
</clipPath>
</defs>
</svg>
